 http://www.shotpix.com/images/19069534772629935618.jpeg


ource: LIMITED.720p.BluRay.x264-GECKOS
 
http://www.imdb.com/title/tt1493157/

Polar-opposite brothers Randy and Kirk never saw eye-to-eye, but their rivalry is taken to a new level when Randy hijacks Kirk's son's sleepover, taking the boys on a Scout Trip to remember.

General
Complete name                            : Nature Calls 2012 LIMITED BRRip x264 AAC-BiGKATS.mp4
Format                                   : MPEG-4
Format profile                           : Base Media
Codec ID                                 : isom
File size                                : 700 MiB
Duration                                 : 1h 19mn
Overall bit rate mode                    : Variable
Overall bit rate                         : 1 235 Kbps
Encoded date                             : UTC 2013-01-10 19:34:07
Tagged date                              : UTC 2013-01-10 19:34:07

Video
ID                                       : 1
Format                                   : AVC
Format/Info                              : Advanced Video Codec
Format profile                           : High@L4.1
Format settings, CABAC                   : Yes
Format settings, ReFrames                : 3 frames
Codec ID                                 : avc1
Codec ID/Info                            : Advanced Video Coding
Duration                                 : 1h 19mn
Bit rate mode                            : Variable
Bit rate                                 : 890 Kbps
Maximum bit rate                         : 40.0 Mbps
Width                                    : 720 pixels
Height                                   : 304 pixels
Display aspect ratio                     : 2.35:1
Frame rate mode                          : Constant
Frame rate                               : 23.976 fps
Color space                              : YUV
Chroma subsampling                       : 4:2:0
Bit depth                                : 8 bits
Scan type                                : Progressive
Bits/(Pixel*Frame)                       : 0.170
Stream size                              : 505 MiB (72%)
Writing library                          : x264 core 129 r2230 1cffe9f

Audio
ID                                       : 2
Format                                   : AAC
Format/Info                              : Advanced Audio Codec
Format profile                           : LC
Codec ID                                 : 40
Duration                                 : 1h 19mn
Bit rate mode                            : Variable
Bit rate                                 : 341 Kbps
Maximum bit rate                         : 405 Kbps
Channel(s)                               : 6 channels
Channel positions                        : Front: L C R, Side: L R, LFE
Sampling rate                            : 48.0 KHz
Compression mode                         : Lossy
Stream size                              : 193 MiB (28%)
Language                                 : English
Encoded date                             : UTC 2013-01-10 18:09:25
Tagged date                              : UTC 2013-01-10 19:34:39

Subtitles: English.srt included in folder.

 
http://www.shotpix.com/images/91868614297821142406.png 
http://www.shotpix.com/images/49158647530075721757.png 
http://www.shotpix.com/images/02186966353336290353.png